<svg xmlns="http://www.w3.org/2000/svg" fill="none" viewBox="0 0 19.2 24">
<path fill-rule="evenodd" clip-rule="evenodd" d="M16.8 0C18.1255 0 19.2 1.07452 19.2 2.4V14.4L11.4 14.4C10.4059 14.4 9.6 15.2059 9.6 16.2V24H2.4C1.07452 24 0 22.9255 0 21.6L0 2.4C0 1.07452 1.07452 0 2.4 0L16.8 0ZM19.1479 16.8C19.0525 17.2511 18.8281 17.6689 18.497 18L13.2 23.297C12.8689 23.6281 12.4511 23.8525 12 23.9479V16.8H19.1479ZM7.2 10.8H6C5.33726 10.8 4.8 11.3372 4.8 12C4.8 12.6628 5.33726 13.2 6 13.2H7.2C7.86276 13.2 8.4 12.6628 8.4 12C8.4 11.3372 7.86276 10.8 7.2 10.8ZM13.2 6L6 6C5.33726 6 4.8 6.53726 4.8 7.2C4.8 7.86275 5.33726 8.4 6 8.4H13.2C13.8628 8.4 14.4 7.86275 14.4 7.2C14.4 6.53726 13.8628 6 13.2 6Z" fill="currentColor"/>
</svg>