<svg xmlns="http://www.w3.org/2000/svg" fill="none" viewBox="2.75 2.89 27.5 26.22">
<path id="vector" fill-rule="evenodd" clip-rule="evenodd" d="M16.5114 2.88885C8.90169 2.88885 2.75 8.8981 2.75 16.3324C2.75 22.275 6.6916 27.3053 12.1596 29.0856C12.8433 29.2195 13.0937 28.7964 13.0937 28.4405C13.0937 28.1288 13.0712 27.0605 13.0712 25.9474C9.24309 26.7489 8.44593 24.3449 8.44593 24.3449C7.83073 22.7868 6.9192 22.3864 6.9192 22.3864C5.66627 21.5629 7.01047 21.5629 7.01047 21.5629C8.40029 21.6519 9.12957 22.9428 9.12957 22.9428C10.3597 24.9903 12.3419 24.4118 13.1393 24.0556C13.2531 23.1876 13.6179 22.5866 14.0052 22.2528C10.9521 21.9412 7.73975 20.7839 7.73975 15.62C7.73975 14.151 8.28621 12.9492 9.15211 12.0144C9.01549 11.6807 8.53691 10.3004 9.28901 8.45314C9.28901 8.45314 10.451 8.09696 13.0709 9.83309C14.1926 9.53881 15.3494 9.38911 16.5114 9.38785C17.6733 9.38785 18.8578 9.54382 19.9516 9.83309C22.5718 8.09696 23.7337 8.45314 23.7337 8.45314C24.4858 10.3004 24.007 11.6807 23.8704 12.0144C24.7591 12.9492 25.283 14.151 25.283 15.62C25.283 20.7839 22.0707 21.9188 18.9947 22.2528C19.4961 22.6757 19.9288 23.4768 19.9288 24.7456C19.9288 26.5484 19.9062 27.9952 19.9062 28.4402C19.9062 28.7964 20.1569 29.2195 20.8403 29.0859C26.3083 27.305 30.2499 22.275 30.2499 16.3324C30.2725 8.8981 24.0982 2.88885 16.5114 2.88885Z" fill="currentColor"/>
</svg>