<svg xmlns="http://www.w3.org/2000/svg" fill="none" viewBox="4.13 4 24.75 24">
<path id="vector" fill-rule="evenodd" clip-rule="evenodd" d="M16.5 4C13.139 4 12.7182 4.0136 11.3982 4.072C10.0807 4.1304 9.1806 4.3336 8.39355 4.6304C7.56855 4.9312 6.82027 5.4032 6.20152 6.0144C5.57223 6.61371 5.08518 7.3388 4.77428 8.1392C4.46985 8.9024 4.25947 9.776 4.19925 11.0536C4.13985 12.3328 4.125 12.74 4.125 16C4.125 19.26 4.13903 19.6672 4.19925 20.9472C4.25947 22.2248 4.46902 23.0976 4.7751 23.8608C5.0853 24.6608 5.57205 25.3864 6.20235 25.9864C6.8204 26.5966 7.56815 27.0689 8.39355 27.3704C9.1806 27.6664 10.0807 27.8696 11.3982 27.928C12.7182 27.9864 13.139 28 16.5 28C19.861 28 20.2818 27.9864 21.6018 27.928C22.9193 27.8696 23.8194 27.6664 24.6064 27.3696C25.4314 27.0688 26.1797 26.5968 26.7985 25.9856C27.4278 25.3863 27.9148 24.6612 28.2257 23.8608C28.531 23.0976 28.7405 22.2248 28.8007 20.9472C28.861 19.6672 28.875 19.2592 28.875 16C28.875 12.7408 28.861 12.3328 28.8007 11.0528C28.7405 9.7752 28.531 8.9024 28.2249 8.1392C27.9142 7.33845 27.4271 6.61306 26.7976 6.0136C26.1796 5.40338 25.4319 4.93109 24.6064 4.6296C23.8194 4.3344 22.9185 4.1304 21.601 4.072C20.2818 4.0144 19.8619 4 16.5 4ZM16.5 6.1624C19.8041 6.1624 20.196 6.1744 21.5012 6.232C22.7073 6.2856 23.3624 6.48 23.7988 6.6456C24.3763 6.8624 24.7888 7.1232 25.2219 7.5424C25.655 7.9624 25.9232 8.3624 26.1467 8.9224C26.3167 9.3456 26.518 9.9808 26.5732 11.1504C26.6326 12.416 26.645 12.796 26.645 16C26.645 19.204 26.6326 19.584 26.5732 20.8496C26.518 22.0192 26.3175 22.6544 26.1467 23.0776C25.9487 23.5988 25.6326 24.0704 25.2219 24.4576C24.8227 24.856 24.3363 25.1624 23.7988 25.3544C23.3624 25.5192 22.7073 25.7144 21.5012 25.768C20.196 25.8256 19.8049 25.8376 16.5 25.8376C13.1951 25.8376 12.804 25.8256 11.4988 25.768C10.2927 25.7144 9.63765 25.52 9.20122 25.3544C8.6637 25.1623 8.17741 24.8559 7.7781 24.4576C7.3674 24.0704 7.05138 23.5988 6.85327 23.0776C6.68332 22.6544 6.48202 22.0192 6.42675 20.8496C6.36735 19.584 6.35497 19.204 6.35497 16C6.35497 12.796 6.36735 12.416 6.42675 11.1504C6.48202 9.9808 6.6825 9.3456 6.85327 8.9224C7.07685 8.3624 7.3458 7.9624 7.7781 7.5424C8.17735 7.14404 8.66366 6.83758 9.20122 6.6456C9.63765 6.4808 10.2927 6.2856 11.4988 6.232C12.804 6.1744 13.1959 6.1624 16.5 6.1624Z" fill="currentColor"/>
<path id="vector_2" fill-rule="evenodd" clip-rule="evenodd" d="M16.5 20.004C15.9578 20.004 15.4208 19.9004 14.9199 19.6992C14.4189 19.498 13.9637 19.2031 13.5803 18.8313C13.1968 18.4595 12.8927 18.0181 12.6852 17.5323C12.4777 17.0465 12.3709 16.5258 12.3709 16C12.3709 15.4742 12.4777 14.9535 12.6852 14.4677C12.8927 13.9819 13.1968 13.5406 13.5803 13.1687C13.9637 12.7969 14.4189 12.502 14.9199 12.3008C15.4208 12.0996 15.9578 11.996 16.5 11.996C17.5951 11.996 18.6454 12.4179 19.4197 13.1687C20.1941 13.9196 20.6291 14.9381 20.6291 16C20.6291 17.0619 20.1941 18.0804 19.4197 18.8313C18.6454 19.5822 17.5951 20.004 16.5 20.004ZM16.5 9.832C14.813 9.832 13.1951 10.4818 12.0023 11.6386C10.8094 12.7953 10.1393 14.3641 10.1393 16C10.1393 17.6359 10.8094 19.2047 12.0023 20.3614C13.1951 21.5182 14.813 22.168 16.5 22.168C18.187 22.168 19.8049 21.5182 20.9977 20.3614C22.1906 19.2047 22.8607 17.6359 22.8607 16C22.8607 14.3641 22.1906 12.7953 20.9977 11.6386C19.8049 10.4818 18.187 9.832 16.5 9.832ZM24.7112 9.72C24.7112 10.1067 24.5528 10.4775 24.2708 10.751C23.9889 11.0244 23.6064 11.178 23.2077 11.178C22.8089 11.178 22.4265 11.0244 22.1445 10.751C21.8625 10.4775 21.7041 10.1067 21.7041 9.72C21.7041 9.33332 21.8625 8.96247 22.1445 8.68904C22.4265 8.41561 22.8089 8.262 23.2077 8.262C23.6064 8.262 23.9889 8.41561 24.2708 8.68904C24.5528 8.96247 24.7112 9.33332 24.7112 9.72Z" fill="currentColor"/>
</svg>