<svg xmlns="http://www.w3.org/2000/svg" fill="none" viewBox="4.13 4 24.75 24">
<path id="vector" fill-rule="evenodd" clip-rule="evenodd" d="M4.125 15.6401C4.125 8.95176 9.52879 4.00008 16.5 4.00008C23.4712 4.00008 28.875 8.95176 28.875 15.6401C28.875 22.3284 23.4712 27.2801 16.5 27.2801C15.2478 27.2801 14.0465 27.1198 12.9178 26.8188C12.6984 26.7602 12.4651 26.7768 12.2569 26.8658L9.8006 27.9173C9.15809 28.1923 8.43281 27.7493 8.41128 27.0684L8.34388 24.9338C8.33559 24.6708 8.21358 24.425 8.01144 24.2496C5.60357 22.1616 4.125 19.1385 4.125 15.6401ZM12.704 13.4517L9.06886 19.0441C8.72001 19.5808 9.40034 20.1856 9.9215 19.8021L13.8263 16.9285C14.0904 16.7341 14.4554 16.7331 14.7206 16.926L17.6119 19.0287C18.4795 19.6597 19.7177 19.4382 20.296 18.5485L23.9312 12.956C24.28 12.4193 23.5997 11.8145 23.0785 12.198L19.1737 15.0717C18.9096 15.2661 18.5446 15.2671 18.2793 15.0741L15.3881 12.9714C14.5205 12.3405 13.2823 12.562 12.704 13.4517Z" fill="currentColor"/>
</svg>