<svg xmlns="http://www.w3.org/2000/svg" fill="none" viewBox="0 0 662 125"><path d="M87.298 32.6187C85.2319 32.6187 83.499 31.9178 82.0994 30.516C80.6998 29.1142 80 27.3787 80 25.3094C80 23.2401 80.6998 21.5045 82.0994 20.1027C83.499 18.7009 85.2319 18 87.298 18C89.2974 18 90.9969 18.7009 92.3966 20.1027C93.7962 21.5045 94.496 23.2401 94.496 25.3094C94.496 27.3787 93.7962 29.1142 92.3966 30.516C90.9969 31.9178 89.2974 32.6187 87.298 32.6187ZM92.8964 39.9281V95.0988H81.4996V39.9281H92.8964Z" fill="#919191"></path><path d="M104.06 67.2632C104.06 61.7227 105.194 56.8164 107.46 52.5443C109.792 48.2721 112.925 44.9679 116.857 42.6316C120.856 40.2285 125.255 39.027 130.053 39.027C134.385 39.027 138.151 39.8947 141.35 41.6303C144.616 43.2991 147.215 45.4018 149.148 47.9384V39.9281H160.645V95.0988H149.148V86.8883C147.215 89.4917 144.583 91.6611 141.25 93.3967C137.918 95.1322 134.119 96 129.853 96C125.121 96 120.789 94.7985 116.857 92.3954C112.925 89.9255 109.792 86.5212 107.46 82.1823C105.194 77.7766 104.06 72.8036 104.06 67.2632ZM149.148 67.4634C149.148 63.6585 148.348 60.3543 146.749 57.5507C145.216 54.7471 143.183 52.611 140.65 51.1425C138.118 49.6739 135.385 48.9397 132.453 48.9397C129.52 48.9397 126.788 49.6739 124.255 51.1425C121.722 52.5443 119.656 54.647 118.057 57.4506C116.524 60.1874 115.757 63.4583 115.757 67.2632C115.757 71.068 116.524 74.4056 118.057 77.276C119.656 80.1463 121.722 82.3492 124.255 83.8845C126.854 85.353 129.587 86.0873 132.453 86.0873C135.385 86.0873 138.118 85.353 140.65 83.8845C143.183 82.4159 145.216 80.2798 146.749 77.4762C148.348 74.6059 149.148 71.2683 149.148 67.4634Z" fill="#919191"></path><path d="M203.406 39.027C207.738 39.027 211.604 39.9281 215.003 41.7304C218.469 43.5327 221.168 46.2028 223.101 49.7407C225.034 53.2786 226 57.5507 226 62.5571V95.0988H214.703V64.2593C214.703 59.3196 213.47 55.5481 211.004 52.9448C208.538 50.2747 205.172 48.9397 200.907 48.9397C196.642 48.9397 193.242 50.2747 190.71 52.9448C188.244 55.5481 187.011 59.3196 187.011 64.2593V95.0988H175.614V39.9281H187.011V46.2362C188.877 43.9666 191.243 42.1977 194.109 40.9294C197.041 39.6611 200.141 39.027 203.406 39.027Z" fill="#919191"></path><path d="M237 67.2617C237 61.721 238.135 56.8144 240.405 52.5421C242.741 48.2697 245.879 44.9653 249.818 42.6288C253.823 40.2256 258.229 39.024 263.036 39.024C267.375 39.024 271.147 39.8919 274.352 41.6275C277.623 43.2964 280.227 45.3992 282.163 47.9359V39.9252H293.679V95.0988H282.163V86.8878C280.227 89.4913 277.59 91.6609 274.252 93.3965C270.914 95.1322 267.108 96 262.836 96C258.096 96 253.757 94.7984 249.818 92.3952C245.879 89.9252 242.741 86.5207 240.405 82.1816C238.135 77.7757 237 72.8024 237 67.2617ZM282.163 67.4619C282.163 63.6569 281.361 60.3525 279.759 57.5487C278.224 54.745 276.188 52.6088 273.651 51.1402C271.114 49.6716 268.377 48.9372 265.439 48.9372C262.502 48.9372 259.765 49.6716 257.228 51.1402C254.691 52.5421 252.622 54.6449 251.019 57.4486C249.484 60.1856 248.716 63.4566 248.716 67.2617C248.716 71.0667 249.484 74.4045 251.019 77.275C252.622 80.1455 254.691 82.3485 257.228 83.8838C259.832 85.3525 262.569 86.0868 265.439 86.0868C268.377 86.0868 271.114 85.3525 273.651 83.8838C276.188 82.4152 278.224 80.279 279.759 77.4753C281.361 74.6048 282.163 71.267 282.163 67.4619Z" fill="#F7F7F7"></path><path d="M320.089 48.1362C322.025 45.466 324.662 43.2964 328 41.6275C331.404 39.8919 335.176 39.024 339.315 39.024C344.189 39.024 348.595 40.1923 352.534 42.5287C356.472 44.8652 359.577 48.2029 361.846 52.5421C364.116 56.8144 365.251 61.721 365.251 67.2617C365.251 72.8024 364.116 77.7757 361.846 82.1816C359.577 86.5207 356.439 89.9252 352.433 92.3952C348.495 94.7984 344.122 96 339.315 96C335.043 96 331.237 95.1656 327.899 93.4967C324.628 91.8278 322.025 89.6916 320.089 87.0881V95.0988H308.673V21H320.089V48.1362ZM353.635 67.2617C353.635 63.4566 352.834 60.1856 351.232 57.4486C349.696 54.6449 347.627 52.5421 345.023 51.1402C342.486 49.6716 339.749 48.9372 336.812 48.9372C333.941 48.9372 331.204 49.6716 328.6 51.1402C326.063 52.6088 323.994 54.745 322.392 57.5487C320.856 60.3525 320.089 63.6569 320.089 67.4619C320.089 71.267 320.856 74.6048 322.392 77.4753C323.994 80.279 326.063 82.4152 328.6 83.8838C331.204 85.3525 333.941 86.0868 336.812 86.0868C339.749 86.0868 342.486 85.3525 345.023 83.8838C347.627 82.3485 349.696 80.1455 351.232 77.275C352.834 74.4045 353.635 71.0667 353.635 67.2617Z" fill="#F7F7F7"></path><path d="M372.735 67.2617C372.735 61.721 373.87 56.8144 376.14 52.5421C378.476 48.2697 381.614 44.9653 385.553 42.6288C389.558 40.2256 393.964 39.024 398.771 39.024C403.11 39.024 406.882 39.8919 410.087 41.6275C413.358 43.2964 415.962 45.3992 417.898 47.9359V39.9252H429.413V95.0988H417.898V86.8878C415.962 89.4913 413.325 91.6609 409.987 93.3965C406.649 95.1322 402.843 96 398.571 96C393.831 96 389.491 94.7984 385.553 92.3952C381.614 89.9252 378.476 86.5207 376.14 82.1816C373.87 77.7757 372.735 72.8024 372.735 67.2617ZM417.898 67.4619C417.898 63.6569 417.096 60.3525 415.494 57.5487C413.959 54.745 411.923 52.6088 409.386 51.1402C406.849 49.6716 404.112 48.9372 401.174 48.9372C398.237 48.9372 395.5 49.6716 392.963 51.1402C390.426 52.5421 388.357 54.6449 386.754 57.4486C385.219 60.1856 384.451 63.4566 384.451 67.2617C384.451 71.0667 385.219 74.4045 386.754 77.275C388.357 80.1455 390.426 82.3485 392.963 83.8838C395.567 85.3525 398.304 86.0868 401.174 86.0868C404.112 86.0868 406.849 85.3525 409.386 83.8838C411.923 82.4152 413.959 80.279 415.494 77.4753C417.096 74.6048 417.898 71.267 417.898 67.4619Z" fill="#F7F7F7"></path><path d="M455.823 21V95.0988H444.408V21H455.823Z" fill="#F7F7F7"></path><path d="M520.781 39.9252V95.0988H509.365V88.5901C507.562 90.8598 505.192 92.6622 502.255 93.9973C499.384 95.2657 496.313 95.8999 493.042 95.8999C488.703 95.8999 484.798 94.9987 481.326 93.1963C477.921 91.3938 475.218 88.7236 473.215 85.1856C471.279 81.6475 470.311 77.3752 470.311 72.3685V39.9252H481.626V70.6662C481.626 75.6061 482.861 79.4112 485.332 82.0814C487.802 84.6849 491.173 85.9866 495.446 85.9866C499.718 85.9866 503.09 84.6849 505.56 82.0814C508.096 79.4112 509.365 75.6061 509.365 70.6662V39.9252H520.781Z" fill="#F7F7F7"></path><path d="M555.871 96C551.531 96 547.626 95.2323 544.154 93.6969C540.75 92.0948 538.046 89.9586 536.043 87.2884C534.04 84.5514 532.972 81.514 532.839 78.1762H544.655C544.855 80.5127 545.957 82.482 547.96 84.0841C550.029 85.6195 552.599 86.3872 555.67 86.3872C558.875 86.3872 561.345 85.7864 563.081 84.5848C564.883 83.3164 565.784 81.7143 565.784 79.7784C565.784 77.7089 564.783 76.1736 562.78 75.1722C560.844 74.1709 557.74 73.0694 553.467 71.8678C549.328 70.733 545.957 69.6315 543.353 68.5634C540.75 67.4953 538.48 65.8598 536.544 63.6569C534.675 61.4539 533.74 58.5501 533.74 54.9453C533.74 52.008 534.608 49.3378 536.344 46.9346C538.079 44.4646 540.549 42.5287 543.754 41.1268C547.025 39.725 550.764 39.024 554.969 39.024C561.245 39.024 566.285 40.6262 570.09 43.8304C573.962 46.968 576.032 51.2737 576.299 56.7477H564.883C564.683 54.2777 563.682 52.3084 561.879 50.8398C560.077 49.3712 557.64 48.6368 554.569 48.6368C551.565 48.6368 549.262 49.2043 547.659 50.3391C546.057 51.474 545.256 52.976 545.256 54.8451C545.256 56.3137 545.79 57.5487 546.858 58.5501C547.926 59.5514 549.228 60.3525 550.764 60.9533C552.299 61.4873 554.569 62.1882 557.573 63.0561C561.579 64.1242 564.85 65.2256 567.387 66.3605C569.99 67.4286 572.227 69.0307 574.096 71.1669C575.965 73.3031 576.933 76.1402 577 79.6782C577 82.8157 576.132 85.6195 574.396 88.0894C572.661 90.5594 570.191 92.4953 566.986 93.8972C563.848 95.2991 560.143 96 555.871 96Z" fill="#F7F7F7"></path><path d="M35.4353 96L0 62.5L35.4353 29H48L12.4235 62.5L48 96H35.4353Z" fill="#919191" fill-opacity="0.15"></path><path d="M626.724 29.1506L634 0H625.974L595 125H602.8L624.295 38.8813L649.576 62.5L614 96H626.565L662 62.5L626.724 29.1506Z" fill="#919191" fill-opacity="0.15"></path></svg>